<svg xmlns="http://www.w3.org/2000/svg" version="1.1" xmlns:xlink="http://www.w3.org/1999/xlink" xmlns:svgjs="http://svgjs.dev/svgjs" viewBox="0 0 600 600"><path d="M295.2036879413385 10.021203678468268C195.65278718402573 27.236773492514473 281.880335147486 85.62000815234552 295.2036879413385 109.7218033488788C308.52704073519095 133.82359854541187 343.25757679870316 146.69784450691856 375.14380470445343 154.63197485766722C407.0300326102037 162.56610520841622 460.1737488064226 166.6080211019709 486.52105537584043 157.32658545337034C512.8683619452595 148.04514980477012 489.2156659715438 113.31461747648292 533.2276441209613 98.94336096606625C577.2396222703801 84.5721044556496 697.4492144538117 71.54814815682136 750.5929242723339 71.09904639087085C803.7366340908559 70.6499446249203 828.8863151821645 91.3086309449074 852.0899030320995 96.24875037036314C875.2934908820343 101.18886979581883 981.7306169622294 130.08108083567987 889.8144513719433 100.73976294360533C797.898285781657 71.3984450515307 347.449192042456 -50.15843876042028 300.5929094903726 -79.79915698208472C253.7366269382893 -109.43987520374883 510.02405889362853 -77.85304935612342 608.6767560594428 -77.10454638638157C707.3294532252503 -76.35604341663975 845.2037030809277 -89.23029430546421 892.5090924852245 -75.30813916363377C939.8144818895214 -61.38598402180334 992.0599932425379 -7.793172675749261 892.5090924852245 6.428384464601081C792.9581917279118 20.649941604951422 394.7545886986513 -7.194366135577965 295.2036879413385 10.021203678468268C195.65278718402573 27.236773492514473 281.880335147486 85.62000815234552 295.2036879413385 109.7218033488788 " fill="url(&quot;#SvgjsLinearGradient1000&quot;)" transform="matrix(1.2667333611186475,0,0,1.2667333611186475,-169.673585946598,-5.013857432993458)" fill-opacity="1"></path><path d="M16.169477087828312 -109.9432674332534C-83.38142366948446 -92.72769761920716 2.846124293975862 -34.34446295937644 16.169477087828312 -10.242667762843197C29.492829881680763 13.859127433689693 64.22336594519297 26.733373395197006 96.10959385094324 34.66750374594572C127.99582175669352 42.601634096694326 181.1395379529126 46.64354999024903 207.48684452232996 37.36211434164879C233.83415109174732 28.08067869304857 210.18145511803309 -6.64985363523904 254.19343326744715 -21.02111014565574C298.2054114168608 -35.3923666560724 418.4150036002918 -48.41632295490052 471.5587134188138 -48.86542472085105C524.7024232373357 -49.31452648680158 549.8521043286438 -28.655840166814585 573.0556921785784 -23.715720741358865C596.2592800285134 -18.775601315903145 702.6964061087086 10.116609723957907 610.7802405184224 -19.224708168116678C518.864074928137 -48.56602606019126 68.4149811889458 -170.12290987214195 21.55869863686243 -199.76362809380637C-25.29758391522094 -229.40434631547078 230.9898480401167 -197.81752046784507 329.64254520592317 -197.06901749810325C428.2952423717304 -196.32051452836143 566.1694922274065 -209.1947654171859 613.4748816317036 -195.27261027535545C660.7802710360005 -181.350455133525 713.0257823890164 -127.75764378747093 613.4748816317036 -113.53608664712058C513.9239808743918 -99.31452950677024 115.72037784514109 -127.15883724729962 16.169477087828312 -109.9432674332534C-83.38142366948446 -92.72769761920716 2.846124293975862 -34.34446295937644 16.169477087828312 -10.242667762843197 " fill-opacity="1" fill="url(&quot;#SvgjsLinearGradient1001&quot;)" opacity="1" stroke-opacity="1" stroke-width="0" stroke="hsl(340, 45%, 30%)" transform="matrix(2.7582072640809328,0,0,2.7582072640809328,-385.7044959505952,170.66919013819387)"></path><defs><linearGradient id="SvgjsLinearGradient1000"><stop stop-color="hsl(90, 20%, 85%)" offset="0"></stop><stop stop-color="hsl(90, 29%, 18%)" offset="1"></stop></linearGradient><linearGradient id="SvgjsLinearGradient1001"><stop stop-color="hsl(101, 20%, 86%)" offset="0"></stop><stop stop-color="hsl(90, 43%, 20%)" offset="1"></stop></linearGradient></defs></svg>