<svg xmlns="http://www.w3.org/2000/svg" version="1.1" xmlns:xlink="http://www.w3.org/1999/xlink" xmlns:svgjs="http://svgjs.dev/svgjs" viewBox="0 0 600 600"><path d="M368.47753102541185 -20.22468274931449C320.124240050318 -29.206718068324896 -152.63024176200017 6.2723214417662305 -227.03143601655748 6.721423207716761C-301.4326302711148 7.170524973667291 -126.28292547702577 -26.51210747262177 -77.92963450193193 -17.530072153611364C-29.576343526838087 -8.548036834600957 -11.31288442055174 61.06273688772982 63.08830983400557 60.61363512177926C137.48950408856288 60.164533355828674 416.8308220005057 -11.242647430304082 368.47753102541185 -20.22468274931449C320.124240050318 -29.206718068324896 -152.63024176200017 6.2723214417662305 -227.03143601655748 6.721423207716761 " fill="hsl(264, 69%, 27%)" transform="matrix(3.386354940899389,0,0,3.386354940899389,-105.03231617180407,-71.14142699572699)"></path><path d="M627.256625422151 93.0151569101847C578.9033344470572 84.0331215911743 106.14885263473917 119.51216110126535 31.74765838018186 119.96126286721596C-42.653535874375436 120.41036463316647 132.49616891971357 86.72773218687742 180.8494598948074 95.70976750588783C229.20275086990125 104.69180282489822 247.4662099761876 174.30257654722897 321.8674042307449 173.85347478127846C396.2685984853022 173.4043730153279 675.6099163972449 101.99719222919512 627.256625422151 93.0151569101847C578.9033344470572 84.0331215911743 106.14885263473917 119.51216110126535 31.74765838018186 119.96126286721596 " fill-opacity="1" fill="hsl(268, 69%, 28%)" opacity="1" stroke-opacity="1" stroke-width="0" stroke="hsl(340, 45%, 30%)" transform="matrix(3.386354940899389,0,0,3.386354940899389,-621.6197641703834,-384.1027237558336)"></path><defs><radialGradient id="SvgjsRadialGradient1000" r="0.3"><stop stop-color="hsl(70, 69%, 60%)" offset="0"></stop><stop stop-color="hsl(70, 69%, 80%)" offset="1"></stop></radialGradient><linearGradient id="SvgjsLinearGradient1001"><stop stop-color="hsl(1.4, 100%, 67%)" offset="0"></stop><stop stop-color="hsl(167, 52%, 78%)" offset="1"></stop></linearGradient></defs></svg>