<svg xmlns="http://www.w3.org/2000/svg" version="1.1" xmlns:xlink="http://www.w3.org/1999/xlink" xmlns:svgjs="http://svgjs.dev/svgjs" viewBox="0 0 600 600"><path d="M158.6114257051927 15.68056294445421C110.25813473009885 6.698527625443802 -362.4963470822194 42.17756713553493 -436.8975413367767 42.62666890148546C-511.2987355913338 43.07577066743599 -336.149030797245 9.393138221146927 -287.7957398221512 18.375173540157334C-239.44244884705734 27.35720885916774 -221.17898974077093 96.96798258149839 -146.77779548621365 96.51888081554783C-72.37660123165634 96.06977904959724 206.96471668028653 24.662598263464616 158.6114257051927 15.68056294445421C110.25813473009885 6.698527625443802 -362.4963470822194 42.17756713553493 -436.8975413367767 42.62666890148546 " fill="hsl(269, 62%, 29%)" transform="matrix(5.003188542033793,0,0,5.003188542033793,-209.21683397751931,-102.61685868812023)"></path><path d="M694.474935582433 106.29273803190436C646.1216446073389 97.31070271289396 173.3671627950182 132.789742222985 98.96596854046089 133.23884398893563C24.56477428590358 133.68794575488613 199.7144790799926 100.00531330859708 248.06777005508644 108.98734862760749C296.4210610301803 117.96938394661788 314.68452013646663 187.58015766894863 389.08571439102474 187.13105590299813C463.4869086455821 186.68195413704757 742.8282265575268 115.27477335091478 694.474935582433 106.29273803190436C646.1216446073389 97.31070271289396 173.3671627950182 132.789742222985 98.96596854046089 133.23884398893563 " fill-opacity="1" fill="hsl(264, 69%, 27%" opacity="1" stroke-opacity="1" stroke-width="0" stroke="hsl(340, 45%, 30%)" transform="matrix(7.70352105694591,0,0,7.70352105694591,-2175.5350314390116,-983.85664045776)"></path><defs><radialGradient id="SvgjsRadialGradient1000" r="0.3"><stop stop-color="hsl(70, 69%, 60%)" offset="0"></stop><stop stop-color="hsl(70, 69%, 80%)" offset="1"></stop></radialGradient><linearGradient id="SvgjsLinearGradient1001"><stop stop-color="hsl(1.4, 100%, 67%)" offset="0"></stop><stop stop-color="hsl(167, 52%, 78%)" offset="1"></stop></linearGradient></defs></svg>